<svg width="75" height="73" viewBox="0 0 75 73" fill="none" xmlns="http://www.w3.org/2000/svg">
<path d="M72 41.4925V43.8955C71.9967 49.528 70.1484 55.0085 66.7306 59.5197C63.3128 64.0309 58.5087 67.3311 53.0348 68.9281C47.5609 70.5251 41.7104 70.3333 36.356 68.3814C31.0015 66.4294 26.43 62.8219 23.3231 58.0968C20.2163 53.3717 18.7406 47.7822 19.1162 42.162C19.4918 36.5418 21.6985 31.1919 25.4072 26.9103C29.1159 22.6286 34.128 19.6447 39.6958 18.4034C45.2636 17.1621 51.089 17.73 56.303 20.0224M72 23L45.5294 49.1455L37.5883 41.3097" stroke="#22811D" stroke-width="5" stroke-linecap="round" stroke-linejoin="round"/>
<path d="M39.7941 20.3731C39.7941 30.7777 31.2406 39.2463 20.6471 39.2463C10.0535 39.2463 1.5 30.7777 1.5 20.3731C1.5 9.96861 10.0535 1.5 20.6471 1.5C31.2406 1.5 39.7941 9.96861 39.7941 20.3731Z" fill="#22811D" stroke="white" stroke-width="3"/>
<path d="M16.2197 28.2088H13.4761C12.991 28.2088 12.5258 28.0217 12.1828 27.6886C11.8398 27.3555 11.6471 26.9038 11.6471 26.4327V20.2163C11.6471 19.7453 11.8398 19.2935 12.1828 18.9605C12.5258 18.6274 12.991 18.4402 13.4761 18.4402H16.2197M22.6212 16.6641V13.1119C22.6212 12.4053 22.3322 11.7277 21.8177 11.2281C21.3032 10.7284 20.6053 10.4478 19.8777 10.4478L16.2197 18.4402V28.2088H26.5353C26.9764 28.2137 27.4045 28.0636 27.7406 27.7861C28.0767 27.5087 28.2982 27.1227 28.3644 26.6991L29.6264 18.7067C29.6662 18.4521 29.6485 18.1922 29.5746 17.9449C29.5006 17.6977 29.3722 17.469 29.1983 17.2747C29.0243 17.0804 28.8089 16.9252 28.567 16.8197C28.3251 16.7143 28.0625 16.6612 27.7974 16.6641H22.6212Z" stroke="white" stroke-width="2" stroke-linecap="round" stroke-linejoin="round"/>
</svg>
